<?xml version="1.0"?>
<svg xmlns="http://www.w3.org/2000/svg" viewBox="0 0 300 40">
  <title>wf1line</title>
  <g class="layer" display="inline">
    <title>black</title>
    <g id="Black_logo">
      <path
        d="m53.806656,10.121419l0,7.98424l1.81563,0c2.30428,0 3.34909,-1.12454 3.34909,-4.25076l0,-0.49685l2.68867,0l0,12.3904l-2.68867,0l0,-0.5316c0,-3.11191 -1.04276,-4.2937 -3.34909,-4.2937l-1.81563,0l0,8.91454l7.64893,0c3.4779,0 4.74556,-2.29202 5.16266,-6.7084l2.77251,0l0,9.56269l-25.13247,0l0,-2.85429l2.13254,0c1.31878,0 2.02621,-0.36598 2.02621,-2.66823l0,-14.87461c0,-1.66023 -0.76059,-2.17343 -2.53532,-2.17343l-0.78105,0c-1.81767,0 -2.69481,0.42937 -3.3266,2.33905l-6.93739,20.2356l-5.27308,0l-4.01154,-13.19189l-0.0777,0l-4.46545,13.19189l-5.33237,0l-7.19502,-21.21498c-0.31896,-1.04275 -0.85874,-1.36171 -2.31247,-1.36171c-0.01226,0 -0.50093,0 -0.52955,0l0,-2.82976l11.0982,0l0,2.82976l-1.61934,0c-0.83216,0 -1.18588,0.5132 -1.18588,1.01208c0,0.3803 0.14721,0.85261 0.35372,1.38421l4.80281,14.16717l0.07974,0l4.57995,-13.32479l-0.65019,-1.81357c-0.38439,-1.12659 -1.15726,-1.42306 -2.26953,-1.42306l-0.92008,0l0,-2.8318l11.47032,0l0,2.82976l-2.02213,0c-0.78513,0 -1.07956,0.35167 -1.07956,0.85056c0,0.38439 0.19015,0.93439 0.31487,1.29424l4.2017,14.17127l0.06952,0l4.88664,-13.84004c0.15334,-0.45595 0.29442,-0.8342 0.29442,-1.31265c0,-0.60316 -0.29851,-1.16338 -1.63774,-1.16338l-1.84629,0l0,-2.82976l34.8342,0l0,8.69168l-2.85429,-0.00409c-0.57454,-3.67827 -0.90373,-5.85579 -5.99892,-5.85579l-6.73498,0zm41.74297,22.57465l0,-9.56269l-2.93403,0c-0.39257,4.37958 -1.18792,6.7084 -5.15449,6.7084l-5.77809,0l0,-17.9579c0,-1.40261 0.57249,-1.7645 2.26339,-1.7645l2.14685,0l0,-2.82976l-14.03223,0l0,2.82976l2.21842,0c1.53755,0 2.05075,0.5132 2.05075,1.66432l0,16.36105c0,1.329 -0.73402,1.69499 -1.81562,1.69499l-2.45355,0l0,2.85429l23.4886,0.00204l0,0zm26.06482,0l0,-9.56269l-2.94016,0c-0.39257,4.37958 -1.21451,6.7084 -5.14631,6.7084l-5.78423,0l0,-17.9579c0,-1.40261 0.57862,-1.7645 2.26339,-1.7645l2.14481,0l0,-2.82976l-14.04859,0l0,2.82976l2.22455,0c1.54369,0 2.05689,0.5132 2.05689,1.66432l0,16.36105c0,1.329 -0.73402,1.69499 -1.80745,1.69499l-2.47399,0l0,2.85429l23.51109,0.00204l0,0zm19.33189,-23.49064c-0.23513,-0.24127 -2.57214,-2.66619 -7.15617,-2.66619c-4.78646,0 -9.63221,2.42492 -9.63221,7.63257c0,4.71899 3.7621,6.87401 8.09465,7.80023c1.43737,0.30669 2.2818,0.4723 3.59649,0.74219c3.24481,0.69109 5.41006,1.67659 5.41006,3.92976c0,1.70726 -1.80131,3.54947 -5.39779,3.54947c-5.01137,0 -7.97811,-2.795 -8.60377,-7.06826l-2.92994,0l0,9.56065l2.59871,0l0.84648,-2.27771c0.61543,0.53365 3.06488,3.04035 7.71026,3.04035c5.90486,0 10.37849,-2.64574 10.37849,-7.84112c0,-5.02772 -4.16898,-7.19297 -9.25804,-8.21119c-0.89554,-0.23309 -1.73179,-0.37417 -2.658,-0.58068c-3.16303,-0.67881 -5.18721,-1.46599 -5.18721,-3.72734c0,-1.96488 2.08143,-3.31228 5.19538,-3.31228c4.69036,0 6.50599,2.98719 7.47718,6.19111l2.85429,0l0,-8.67737l-2.0712,0l-1.26767,1.91581l0.00001,0z"
        fill="#000000"
        id="svg_1"/>
      <path
        d="m173.163416,32.704249l0,-2.86042l-1.91786,0c-1.76859,0 -2.42901,-0.53365 -2.42901,-1.96488l0,-6.92513l1.57232,0c2.38403,0 3.42269,1.03458 3.42269,3.72734l0,0.83625l2.6621,0l0,-11.68296l-2.6621,0l0,0.50298c0,1.96488 -0.72584,3.78459 -3.1937,3.78459l-1.79926,0l0,-8.00673l5.00523,0c5.62271,0 6.2136,2.8318 6.58777,5.84761l2.7541,0l0,-8.68146l-24.05291,0l0,2.83794l2.53942,0c1.14907,0 1.78904,0.51728 1.78904,1.44145l0,16.3999c0,1.07752 -0.57658,1.8831 -1.93626,1.8831l-2.3922,0l0,2.85838l14.05063,0l0,0.00204zm106.36523,-26.18954c-8.33387,0 -13.84412,5.83535 -13.84412,13.46791s5.51025,13.50063 13.84412,13.50063c8.30321,0 13.83186,-5.86806 13.83186,-13.50063c-0.00204,-7.63256 -5.5307,-13.46791 -13.83186,-13.46791zm0,2.99332c6.01528,0 7.82068,5.00319 7.82068,10.47459c0,5.47959 -1.8054,10.48277 -7.82068,10.48277c-6.04798,0 -7.84111,-5.00318 -7.84111,-10.48277c0,-5.46936 1.78904,-10.47459 7.84111,-10.47459zm-23.43543,-0.14108c-0.54592,-0.49684 -2.93608,-2.85224 -7.63257,-2.85224c-7.51194,0 -12.22479,5.73516 -12.22479,13.46791c0,7.80841 4.79259,13.50063 12.22479,13.50063c4.79054,0 7.38312,-2.18161 7.96584,-2.72343l1.42715,1.94239l2.6028,0l0,-8.8205c0,-1.49052 0.55613,-1.89331 2.03848,-1.89331l0.70949,0l0,-2.84611l-11.73817,0l0,2.84815l1.73793,0c1.26357,0 2.03644,0.56023 2.03644,1.80131l0,1.47622c0,2.91358 -1.79313,4.9398 -5.67791,4.9398c-4.87846,0 -7.31565,-4.38571 -7.31565,-10.2231c0,-5.74743 2.44128,-10.16176 7.16435,-10.16176c4.9214,0 6.59799,4.5963 7.16026,6.14204l3.1528,0l0,-8.68351l-2.68254,0l-0.94871,2.08552l0.00001,-0.00001zm-21.12502,17.35883l0,0.69517c0,4.38776 -2.09369,6.06435 -5.27103,6.06435c-3.7069,0 -4.95821,-1.77882 -4.95821,-5.23832c0,-0.04294 0,-1.30651 0,-1.32287c0,-4.36935 -1.86469,-6.13591 -6.1175,-6.13591l-2.01395,0l0,7.68573c0,1.01209 0.47231,1.37399 1.5764,1.37399l2.78886,0l0,2.85838l-25.37169,0l0,-2.86247l2.82771,0c0.77696,0 1.06116,-0.18402 1.06116,-0.65224c0,-0.22899 -0.06543,-0.61747 -0.21469,-1.03866c-0.13494,-0.33941 -1.33718,-3.61898 -1.33718,-3.61898l-9.0638,0c0,0 -1.11432,3.03626 -1.31265,3.53106c-0.12676,0.3803 -0.21673,0.68904 -0.21673,1.06525c0,0.54182 0.44778,0.71766 1.2002,0.71766l2.6948,0l0,2.85838l-11.95285,0l0,-2.85838c2.02213,0 3.30616,-0.28625 4.02586,-2.06711l8.09874,-20.49732l4.88051,0l8.29912,20.49527c0.7013,1.80131 2.00168,2.06711 4.0279,2.06711l1.03662,0c1.09183,0 1.58662,-0.36189 1.58662,-1.37398l0,-16.97444c0,-1.01822 -0.38847,-1.38216 -1.58662,-1.38216l-2.66619,0l0,-2.83385l16.68615,0c5.54092,0 8.14168,2.62121 8.14168,6.59799c0,4.91323 -4.89891,5.88238 -7.19298,6.00914l0,0.05521c2.68255,0.2065 4.94799,1.31673 4.94799,5.21991c0,0.07157 0,1.41284 0,1.49258c0,2.60484 0.55409,3.18143 1.4803,3.18143c0.90577,0 1.3883,-0.71358 1.3883,-2.42083l0,-0.69109l2.52715,0zm-38.07901,-5.00523l-3.42269,-9.24782l-0.11041,0l-3.43292,9.24782l6.96602,0zm29.58361,-7.69186c0,-2.2225 -1.58867,-3.9134 -5.14631,-3.9134l-4.72511,0l0,7.84521l4.72511,0c3.27549,0 5.14631,-1.47826 5.14631,-3.93181z"
        fill="#000000"
        id="svg_2"/>
    </g>
  </g>
  <g class="layer" display="zone">
    <title>white</title>
    <g id="White_logo">
      <path
        d="m54.16716,10.60671l0,7.98424l1.81563,0c2.30428,0 3.34909,-1.12454 3.34909,-4.25076l0,-0.49685l2.68867,0l0,12.3904l-2.68867,0l0,-0.5316c0,-3.11191 -1.04276,-4.2937 -3.34909,-4.2937l-1.81563,0l0,8.91454l7.64893,0c3.4779,0 4.74556,-2.29202 5.16266,-6.7084l2.77251,0l0,9.56269l-25.13247,0l0,-2.85429l2.13254,0c1.31878,0 2.02621,-0.36598 2.02621,-2.66823l0,-14.87461c0,-1.66023 -0.76059,-2.17343 -2.53532,-2.17343l-0.78105,0c-1.81767,0 -2.69481,0.42937 -3.3266,2.33905l-6.93739,20.2356l-5.27308,0l-4.01154,-13.19189l-0.0777,0l-4.46545,13.19189l-5.33237,0l-7.19502,-21.21498c-0.31896,-1.04275 -0.85874,-1.36171 -2.31247,-1.36171c-0.01226,0 -0.50093,0 -0.52955,0l0,-2.82976l11.0982,0l0,2.82976l-1.61934,0c-0.83216,0 -1.18588,0.5132 -1.18588,1.01208c0,0.3803 0.14721,0.85261 0.35372,1.38421l4.80281,14.16717l0.07974,0l4.57995,-13.32479l-0.65019,-1.81357c-0.38439,-1.12659 -1.15726,-1.42306 -2.26953,-1.42306l-0.92008,0l0,-2.8318l11.47032,0l0,2.82976l-2.02213,0c-0.78513,0 -1.07956,0.35167 -1.07956,0.85056c0,0.38439 0.19015,0.93439 0.31487,1.29424l4.2017,14.17127l0.06952,0l4.88664,-13.84004c0.15334,-0.45595 0.29442,-0.8342 0.29442,-1.31265c0,-0.60316 -0.29851,-1.16338 -1.63774,-1.16338l-1.84629,0l0,-2.82976l34.8342,0l0,8.69168l-2.85429,-0.00409c-0.57454,-3.67827 -0.90373,-5.85579 -5.99892,-5.85579l-6.73498,0zm41.74297,22.57465l0,-9.56269l-2.93403,0c-0.39257,4.37958 -1.18792,6.7084 -5.15449,6.7084l-5.77809,0l0,-17.9579c0,-1.40261 0.57249,-1.7645 2.26339,-1.7645l2.14685,0l0,-2.82976l-14.03223,0l0,2.82976l2.21842,0c1.53755,0 2.05075,0.5132 2.05075,1.66432l0,16.36105c0,1.329 -0.73402,1.69499 -1.81562,1.69499l-2.45355,0l0,2.85429l23.4886,0.00204l0,0zm26.06482,0l0,-9.56269l-2.94016,0c-0.39257,4.37958 -1.21451,6.7084 -5.14631,6.7084l-5.78423,0l0,-17.9579c0,-1.40261 0.57862,-1.7645 2.26339,-1.7645l2.14481,0l0,-2.82976l-14.04859,0l0,2.82976l2.22455,0c1.54369,0 2.05689,0.5132 2.05689,1.66432l0,16.36105c0,1.329 -0.73402,1.69499 -1.80745,1.69499l-2.47399,0l0,2.85429l23.51109,0.00204l0,0zm19.33189,-23.49064c-0.23513,-0.24127 -2.57214,-2.66619 -7.15617,-2.66619c-4.78646,0 -9.63221,2.42492 -9.63221,7.63257c0,4.71899 3.7621,6.87401 8.09465,7.80023c1.43737,0.30669 2.2818,0.4723 3.59649,0.74219c3.24481,0.69109 5.41006,1.67659 5.41006,3.92976c0,1.70726 -1.80131,3.54947 -5.39779,3.54947c-5.01137,0 -7.97811,-2.795 -8.60377,-7.06826l-2.92994,0l0,9.56065l2.59871,0l0.84648,-2.27771c0.61543,0.53365 3.06488,3.04035 7.71026,3.04035c5.90486,0 10.37849,-2.64574 10.37849,-7.84112c0,-5.02772 -4.16898,-7.19297 -9.25804,-8.21119c-0.89554,-0.23309 -1.73179,-0.37417 -2.658,-0.58068c-3.16303,-0.67881 -5.18721,-1.46599 -5.18721,-3.72734c0,-1.96488 2.08143,-3.31228 5.19538,-3.31228c4.69036,0 6.50599,2.98719 7.47718,6.19111l2.85429,0l0,-8.67737l-2.0712,0l-1.26767,1.91581l0.00001,0z"
        fill="#ffffff"
        id="svg_3"/>
      <path
        d="m173.52392,33.18954l0,-2.86042l-1.91786,0c-1.76859,0 -2.42901,-0.53365 -2.42901,-1.96488l0,-6.92513l1.57232,0c2.38403,0 3.42269,1.03458 3.42269,3.72734l0,0.83625l2.6621,0l0,-11.68296l-2.6621,0l0,0.50298c0,1.96488 -0.72584,3.78459 -3.1937,3.78459l-1.79926,0l0,-8.00673l5.00523,0c5.62271,0 6.2136,2.8318 6.58777,5.84761l2.7541,0l0,-8.68146l-24.05291,0l0,2.83794l2.53942,0c1.14907,0 1.78904,0.51728 1.78904,1.44145l0,16.3999c0,1.07752 -0.57658,1.8831 -1.93626,1.8831l-2.3922,0l0,2.85838l14.05063,0l0,0.00204zm106.36523,-26.18954c-8.33387,0 -13.84412,5.83535 -13.84412,13.46791s5.51025,13.50063 13.84412,13.50063c8.30321,0 13.83186,-5.86806 13.83186,-13.50063c-0.00204,-7.63256 -5.5307,-13.46791 -13.83186,-13.46791zm0,2.99332c6.01528,0 7.82068,5.00319 7.82068,10.47459c0,5.47959 -1.8054,10.48277 -7.82068,10.48277c-6.04798,0 -7.84111,-5.00318 -7.84111,-10.48277c0,-5.46936 1.78904,-10.47459 7.84111,-10.47459zm-23.43543,-0.14108c-0.54592,-0.49684 -2.93608,-2.85224 -7.63257,-2.85224c-7.51194,0 -12.22479,5.73516 -12.22479,13.46791c0,7.80841 4.79259,13.50063 12.22479,13.50063c4.79054,0 7.38312,-2.18161 7.96584,-2.72343l1.42715,1.94239l2.6028,0l0,-8.8205c0,-1.49052 0.55613,-1.89331 2.03848,-1.89331l0.70949,0l0,-2.84611l-11.73817,0l0,2.84815l1.73793,0c1.26357,0 2.03644,0.56023 2.03644,1.80131l0,1.47622c0,2.91358 -1.79313,4.9398 -5.67791,4.9398c-4.87846,0 -7.31565,-4.38571 -7.31565,-10.2231c0,-5.74743 2.44128,-10.16176 7.16435,-10.16176c4.9214,0 6.59799,4.5963 7.16026,6.14204l3.1528,0l0,-8.68351l-2.68254,0l-0.94871,2.08552l0.00001,-0.00001zm-21.12502,17.35883l0,0.69517c0,4.38776 -2.09369,6.06435 -5.27103,6.06435c-3.7069,0 -4.95821,-1.77882 -4.95821,-5.23832c0,-0.04294 0,-1.30651 0,-1.32287c0,-4.36935 -1.86469,-6.13591 -6.1175,-6.13591l-2.01395,0l0,7.68573c0,1.01209 0.47231,1.37399 1.5764,1.37399l2.78886,0l0,2.85838l-25.37169,0l0,-2.86247l2.82771,0c0.77696,0 1.06116,-0.18402 1.06116,-0.65224c0,-0.22899 -0.06543,-0.61747 -0.21469,-1.03866c-0.13494,-0.33941 -1.33718,-3.61898 -1.33718,-3.61898l-9.0638,0c0,0 -1.11432,3.03626 -1.31265,3.53106c-0.12676,0.3803 -0.21673,0.68904 -0.21673,1.06525c0,0.54182 0.44778,0.71766 1.2002,0.71766l2.6948,0l0,2.85838l-11.95285,0l0,-2.85838c2.02213,0 3.30616,-0.28625 4.02586,-2.06711l8.09874,-20.49732l4.88051,0l8.29912,20.49527c0.7013,1.80131 2.00168,2.06711 4.0279,2.06711l1.03662,0c1.09183,0 1.58662,-0.36189 1.58662,-1.37398l0,-16.97444c0,-1.01822 -0.38847,-1.38216 -1.58662,-1.38216l-2.66619,0l0,-2.83385l16.68615,0c5.54092,0 8.14168,2.62121 8.14168,6.59799c0,4.91323 -4.89891,5.88238 -7.19298,6.00914l0,0.05521c2.68255,0.2065 4.94799,1.31673 4.94799,5.21991c0,0.07157 0,1.41284 0,1.49258c0,2.60484 0.55409,3.18143 1.4803,3.18143c0.90577,0 1.3883,-0.71358 1.3883,-2.42083l0,-0.69109l2.52715,0zm-38.07901,-5.00523l-3.42269,-9.24782l-0.11041,0l-3.43292,9.24782l6.96602,0zm29.58361,-7.69186c0,-2.2225 -1.58867,-3.9134 -5.14631,-3.9134l-4.72511,0l0,7.84521l4.72511,0c3.27549,0 5.14631,-1.47826 5.14631,-3.93181z"
        fill="#ffffff"
        id="svg_4"/>
    </g>
  </g>
  <g class="layer" display="none">
    <title>gold</title>
    <g id="Gold_logo">
      <path
        d="m54.16716,10.60671l0,7.98424l1.81563,0c2.30428,0 3.34909,-1.12454 3.34909,-4.25076l0,-0.49685l2.68867,0l0,12.3904l-2.68867,0l0,-0.5316c0,-3.11191 -1.04276,-4.2937 -3.34909,-4.2937l-1.81563,0l0,8.91454l7.64893,0c3.4779,0 4.74556,-2.29202 5.16266,-6.7084l2.77251,0l0,9.56269l-25.13247,0l0,-2.85429l2.13254,0c1.31878,0 2.02621,-0.36598 2.02621,-2.66823l0,-14.87461c0,-1.66023 -0.76059,-2.17343 -2.53532,-2.17343l-0.78105,0c-1.81767,0 -2.69481,0.42937 -3.3266,2.33905l-6.93739,20.2356l-5.27308,0l-4.01154,-13.19189l-0.0777,0l-4.46545,13.19189l-5.33237,0l-7.19502,-21.21498c-0.31896,-1.04275 -0.85874,-1.36171 -2.31247,-1.36171c-0.01226,0 -0.50093,0 -0.52955,0l0,-2.82976l11.0982,0l0,2.82976l-1.61934,0c-0.83216,0 -1.18588,0.5132 -1.18588,1.01208c0,0.3803 0.14721,0.85261 0.35372,1.38421l4.80281,14.16717l0.07974,0l4.57995,-13.32479l-0.65019,-1.81357c-0.38439,-1.12659 -1.15726,-1.42306 -2.26953,-1.42306l-0.92008,0l0,-2.8318l11.47032,0l0,2.82976l-2.02213,0c-0.78513,0 -1.07956,0.35167 -1.07956,0.85056c0,0.38439 0.19015,0.93439 0.31487,1.29424l4.2017,14.17127l0.06952,0l4.88664,-13.84004c0.15334,-0.45595 0.29442,-0.8342 0.29442,-1.31265c0,-0.60316 -0.29851,-1.16338 -1.63774,-1.16338l-1.84629,0l0,-2.82976l34.8342,0l0,8.69168l-2.85429,-0.00409c-0.57454,-3.67827 -0.90373,-5.85579 -5.99892,-5.85579l-6.73498,0zm41.74297,22.57465l0,-9.56269l-2.93403,0c-0.39257,4.37958 -1.18792,6.7084 -5.15449,6.7084l-5.77809,0l0,-17.9579c0,-1.40261 0.57249,-1.7645 2.26339,-1.7645l2.14685,0l0,-2.82976l-14.03223,0l0,2.82976l2.21842,0c1.53755,0 2.05075,0.5132 2.05075,1.66432l0,16.36105c0,1.329 -0.73402,1.69499 -1.81562,1.69499l-2.45355,0l0,2.85429l23.4886,0.00204l0,0zm26.06482,0l0,-9.56269l-2.94016,0c-0.39257,4.37958 -1.21451,6.7084 -5.14631,6.7084l-5.78423,0l0,-17.9579c0,-1.40261 0.57862,-1.7645 2.26339,-1.7645l2.14481,0l0,-2.82976l-14.04859,0l0,2.82976l2.22455,0c1.54369,0 2.05689,0.5132 2.05689,1.66432l0,16.36105c0,1.329 -0.73402,1.69499 -1.80745,1.69499l-2.47399,0l0,2.85429l23.51109,0.00204l0,0zm19.33189,-23.49064c-0.23513,-0.24127 -2.57214,-2.66619 -7.15617,-2.66619c-4.78646,0 -9.63221,2.42492 -9.63221,7.63257c0,4.71899 3.7621,6.87401 8.09465,7.80023c1.43737,0.30669 2.2818,0.4723 3.59649,0.74219c3.24481,0.69109 5.41006,1.67659 5.41006,3.92976c0,1.70726 -1.80131,3.54947 -5.39779,3.54947c-5.01137,0 -7.97811,-2.795 -8.60377,-7.06826l-2.92994,0l0,9.56065l2.59871,0l0.84648,-2.27771c0.61543,0.53365 3.06488,3.04035 7.71026,3.04035c5.90486,0 10.37849,-2.64574 10.37849,-7.84112c0,-5.02772 -4.16898,-7.19297 -9.25804,-8.21119c-0.89554,-0.23309 -1.73179,-0.37417 -2.658,-0.58068c-3.16303,-0.67881 -5.18721,-1.46599 -5.18721,-3.72734c0,-1.96488 2.08143,-3.31228 5.19538,-3.31228c4.69036,0 6.50599,2.98719 7.47718,6.19111l2.85429,0l0,-8.67737l-2.0712,0l-1.26767,1.91581l0.00001,0z"
        fill="#FCC60A"
        id="svg_5"/>
      <path
        d="m173.52392,33.18954l0,-2.86042l-1.91786,0c-1.76859,0 -2.42901,-0.53365 -2.42901,-1.96488l0,-6.92513l1.57232,0c2.38403,0 3.42269,1.03458 3.42269,3.72734l0,0.83625l2.6621,0l0,-11.68296l-2.6621,0l0,0.50298c0,1.96488 -0.72584,3.78459 -3.1937,3.78459l-1.79926,0l0,-8.00673l5.00523,0c5.62271,0 6.2136,2.8318 6.58777,5.84761l2.7541,0l0,-8.68146l-24.05291,0l0,2.83794l2.53942,0c1.14907,0 1.78904,0.51728 1.78904,1.44145l0,16.3999c0,1.07752 -0.57658,1.8831 -1.93626,1.8831l-2.3922,0l0,2.85838l14.05063,0l0,0.00204zm106.36523,-26.18954c-8.33387,0 -13.84412,5.83535 -13.84412,13.46791s5.51025,13.50063 13.84412,13.50063c8.30321,0 13.83186,-5.86806 13.83186,-13.50063c-0.00204,-7.63256 -5.5307,-13.46791 -13.83186,-13.46791zm0,2.99332c6.01528,0 7.82068,5.00319 7.82068,10.47459c0,5.47959 -1.8054,10.48277 -7.82068,10.48277c-6.04798,0 -7.84111,-5.00318 -7.84111,-10.48277c0,-5.46936 1.78904,-10.47459 7.84111,-10.47459zm-23.43543,-0.14108c-0.54592,-0.49684 -2.93608,-2.85224 -7.63257,-2.85224c-7.51194,0 -12.22479,5.73516 -12.22479,13.46791c0,7.80841 4.79259,13.50063 12.22479,13.50063c4.79054,0 7.38312,-2.18161 7.96584,-2.72343l1.42715,1.94239l2.6028,0l0,-8.8205c0,-1.49052 0.55613,-1.89331 2.03848,-1.89331l0.70949,0l0,-2.84611l-11.73817,0l0,2.84815l1.73793,0c1.26357,0 2.03644,0.56023 2.03644,1.80131l0,1.47622c0,2.91358 -1.79313,4.9398 -5.67791,4.9398c-4.87846,0 -7.31565,-4.38571 -7.31565,-10.2231c0,-5.74743 2.44128,-10.16176 7.16435,-10.16176c4.9214,0 6.59799,4.5963 7.16026,6.14204l3.1528,0l0,-8.68351l-2.68254,0l-0.94871,2.08552l0.00001,-0.00001zm-21.12502,17.35883l0,0.69517c0,4.38776 -2.09369,6.06435 -5.27103,6.06435c-3.7069,0 -4.95821,-1.77882 -4.95821,-5.23832c0,-0.04294 0,-1.30651 0,-1.32287c0,-4.36935 -1.86469,-6.13591 -6.1175,-6.13591l-2.01395,0l0,7.68573c0,1.01209 0.47231,1.37399 1.5764,1.37399l2.78886,0l0,2.85838l-25.37169,0l0,-2.86247l2.82771,0c0.77696,0 1.06116,-0.18402 1.06116,-0.65224c0,-0.22899 -0.06543,-0.61747 -0.21469,-1.03866c-0.13494,-0.33941 -1.33718,-3.61898 -1.33718,-3.61898l-9.0638,0c0,0 -1.11432,3.03626 -1.31265,3.53106c-0.12676,0.3803 -0.21673,0.68904 -0.21673,1.06525c0,0.54182 0.44778,0.71766 1.2002,0.71766l2.6948,0l0,2.85838l-11.95285,0l0,-2.85838c2.02213,0 3.30616,-0.28625 4.02586,-2.06711l8.09874,-20.49732l4.88051,0l8.29912,20.49527c0.7013,1.80131 2.00168,2.06711 4.0279,2.06711l1.03662,0c1.09183,0 1.58662,-0.36189 1.58662,-1.37398l0,-16.97444c0,-1.01822 -0.38847,-1.38216 -1.58662,-1.38216l-2.66619,0l0,-2.83385l16.68615,0c5.54092,0 8.14168,2.62121 8.14168,6.59799c0,4.91323 -4.89891,5.88238 -7.19298,6.00914l0,0.05521c2.68255,0.2065 4.94799,1.31673 4.94799,5.21991c0,0.07157 0,1.41284 0,1.49258c0,2.60484 0.55409,3.18143 1.4803,3.18143c0.90577,0 1.3883,-0.71358 1.3883,-2.42083l0,-0.69109l2.52715,0zm-38.07901,-5.00523l-3.42269,-9.24782l-0.11041,0l-3.43292,9.24782l6.96602,0zm29.58361,-7.69186c0,-2.2225 -1.58867,-3.9134 -5.14631,-3.9134l-4.72511,0l0,7.84521l4.72511,0c3.27549,0 5.14631,-1.47826 5.14631,-3.93181z"
        fill="#FCC60A"
        id="svg_6"/>
    </g>
  </g>
</svg>
